<?xml version="1.0" encoding="utf-8" standalone="no"?>
<!DOCTYPE svg PUBLIC "-//W3C//DTD SVG 1.1//EN"
  "http://www.w3.org/Graphics/SVG/1.1/DTD/svg11.dtd">
<svg xmlns:xlink="http://www.w3.org/1999/xlink" width="160.085156pt" height="137.925312pt" viewBox="0 0 160.085156 137.925312" xmlns="http://www.w3.org/2000/svg" version="1.1">
 <metadata>
  <rdf:RDF xmlns:dc="http://purl.org/dc/elements/1.1/" xmlns:cc="http://creativecommons.org/ns#" xmlns:rdf="http://www.w3.org/1999/02/22-rdf-syntax-ns#">
   <cc:Work>
    <dc:type rdf:resource="http://purl.org/dc/dcmitype/StillImage"/>
    <dc:date>2025-06-30T14:49:09.587033</dc:date>
    <dc:format>image/svg+xml</dc:format>
    <dc:creator>
     <cc:Agent>
      <dc:title>Matplotlib v3.7.1, https://matplotlib.org/</dc:title>
     </cc:Agent>
    </dc:creator>
   </cc:Work>
  </rdf:RDF>
 </metadata>
 <defs>
  <style type="text/css">*{stroke-linejoin: round; stroke-linecap: butt}</style>
 </defs>
 <g id="figure_1">
  <g id="patch_1">
   <path d="M 0 137.925312 
L 160.085156 137.925312 
L 160.085156 0 
L 0 0 
z
" style="fill: #ffffff"/>
  </g>
  <g id="axes_1">
   <g id="patch_2">
    <path d="M 32.94375 118.08 
L 144.54375 118.08 
L 144.54375 7.2 
L 32.94375 7.2 
z
" style="fill: #ffffff"/>
   </g>
   <g id="matplotlib.axis_1">
    <g id="xtick_1">
     <g id="line2d_1">
      <defs>
       <path id="mab41254cb8" d="M 0 0 
L 0 -3.5 
" style="stroke: #000000; stroke-width: 0.8"/>
      </defs>
      <g>
       <use xlink:href="#mab41254cb8" x="32.94375" y="118.08" style="stroke: #000000; stroke-width: 0.8"/>
      </g>
     </g>
     <g id="text_1">
      <!-- 535 -->
      <g transform="translate(24.602344 128.737812) scale(0.1 -0.1)">
       <defs>
        <path id="ArialMT-35" d="M 266 1200 
L 856 1250 
Q 922 819 1161 601 
Q 1400 384 1738 384 
Q 2144 384 2425 690 
Q 2706 997 2706 1503 
Q 2706 1984 2436 2262 
Q 2166 2541 1728 2541 
Q 1456 2541 1237 2417 
Q 1019 2294 894 2097 
L 366 2166 
L 809 4519 
L 3088 4519 
L 3088 3981 
L 1259 3981 
L 1013 2750 
Q 1425 3038 1878 3038 
Q 2478 3038 2890 2622 
Q 3303 2206 3303 1553 
Q 3303 931 2941 478 
Q 2500 -78 1738 -78 
Q 1113 -78 717 272 
Q 322 622 266 1200 
z
" transform="scale(0.015625)"/>
        <path id="ArialMT-33" d="M 269 1209 
L 831 1284 
Q 928 806 1161 595 
Q 1394 384 1728 384 
Q 2125 384 2398 659 
Q 2672 934 2672 1341 
Q 2672 1728 2419 1979 
Q 2166 2231 1775 2231 
Q 1616 2231 1378 2169 
L 1441 2663 
Q 1497 2656 1531 2656 
Q 1891 2656 2178 2843 
Q 2466 3031 2466 3422 
Q 2466 3731 2256 3934 
Q 2047 4138 1716 4138 
Q 1388 4138 1169 3931 
Q 950 3725 888 3313 
L 325 3413 
Q 428 3978 793 4289 
Q 1159 4600 1703 4600 
Q 2078 4600 2393 4439 
Q 2709 4278 2876 4000 
Q 3044 3722 3044 3409 
Q 3044 3113 2884 2869 
Q 2725 2625 2413 2481 
Q 2819 2388 3044 2092 
Q 3269 1797 3269 1353 
Q 3269 753 2831 336 
Q 2394 -81 1725 -81 
Q 1122 -81 723 278 
Q 325 638 269 1209 
z
" transform="scale(0.015625)"/>
       </defs>
       <use xlink:href="#ArialMT-35"/>
       <use xlink:href="#ArialMT-33" x="55.615234"/>
       <use xlink:href="#ArialMT-35" x="111.230469"/>
      </g>
     </g>
    </g>
    <g id="xtick_2">
     <g id="line2d_2">
      <g>
       <use xlink:href="#mab41254cb8" x="70.14375" y="118.08" style="stroke: #000000; stroke-width: 0.8"/>
      </g>
     </g>
     <g id="text_2">
      <!-- 540 -->
      <g transform="translate(61.802344 128.737812) scale(0.1 -0.1)">
       <defs>
        <path id="ArialMT-34" d="M 2069 0 
L 2069 1097 
L 81 1097 
L 81 1613 
L 2172 4581 
L 2631 4581 
L 2631 1613 
L 3250 1613 
L 3250 1097 
L 2631 1097 
L 2631 0 
L 2069 0 
z
M 2069 1613 
L 2069 3678 
L 634 1613 
L 2069 1613 
z
" transform="scale(0.015625)"/>
        <path id="ArialMT-30" d="M 266 2259 
Q 266 3072 433 3567 
Q 600 4063 929 4331 
Q 1259 4600 1759 4600 
Q 2128 4600 2406 4451 
Q 2684 4303 2865 4023 
Q 3047 3744 3150 3342 
Q 3253 2941 3253 2259 
Q 3253 1453 3087 958 
Q 2922 463 2592 192 
Q 2263 -78 1759 -78 
Q 1097 -78 719 397 
Q 266 969 266 2259 
z
M 844 2259 
Q 844 1131 1108 757 
Q 1372 384 1759 384 
Q 2147 384 2411 759 
Q 2675 1134 2675 2259 
Q 2675 3391 2411 3762 
Q 2147 4134 1753 4134 
Q 1366 4134 1134 3806 
Q 844 3388 844 2259 
z
" transform="scale(0.015625)"/>
       </defs>
       <use xlink:href="#ArialMT-35"/>
       <use xlink:href="#ArialMT-34" x="55.615234"/>
       <use xlink:href="#ArialMT-30" x="111.230469"/>
      </g>
     </g>
    </g>
    <g id="xtick_3">
     <g id="line2d_3">
      <g>
       <use xlink:href="#mab41254cb8" x="107.34375" y="118.08" style="stroke: #000000; stroke-width: 0.8"/>
      </g>
     </g>
     <g id="text_3">
      <!-- 545 -->
      <g transform="translate(99.002344 128.737812) scale(0.1 -0.1)">
       <use xlink:href="#ArialMT-35"/>
       <use xlink:href="#ArialMT-34" x="55.615234"/>
       <use xlink:href="#ArialMT-35" x="111.230469"/>
      </g>
     </g>
    </g>
    <g id="xtick_4">
     <g id="line2d_4">
      <g>
       <use xlink:href="#mab41254cb8" x="144.54375" y="118.08" style="stroke: #000000; stroke-width: 0.8"/>
      </g>
     </g>
     <g id="text_4">
      <!-- 550 -->
      <g transform="translate(136.202344 128.737812) scale(0.1 -0.1)">
       <use xlink:href="#ArialMT-35"/>
       <use xlink:href="#ArialMT-35" x="55.615234"/>
       <use xlink:href="#ArialMT-30" x="111.230469"/>
      </g>
     </g>
    </g>
   </g>
   <g id="matplotlib.axis_2">
    <g id="ytick_1">
     <g id="line2d_5">
      <defs>
       <path id="md8fd96ab61" d="M 0 0 
L 3.5 0 
" style="stroke: #000000; stroke-width: 0.8"/>
      </defs>
      <g>
       <use xlink:href="#md8fd96ab61" x="32.94375" y="113.257749" style="stroke: #000000; stroke-width: 0.8"/>
      </g>
     </g>
     <g id="text_5">
      <!-- 0 -->
      <g transform="translate(23.882812 116.836656) scale(0.1 -0.1)">
       <use xlink:href="#ArialMT-30"/>
      </g>
     </g>
    </g>
    <g id="ytick_2">
     <g id="line2d_6">
      <g>
       <use xlink:href="#md8fd96ab61" x="32.94375" y="70.585501" style="stroke: #000000; stroke-width: 0.8"/>
      </g>
     </g>
     <g id="text_6">
      <!-- 2000 -->
      <g transform="translate(7.2 74.164407) scale(0.1 -0.1)">
       <defs>
        <path id="ArialMT-32" d="M 3222 541 
L 3222 0 
L 194 0 
Q 188 203 259 391 
Q 375 700 629 1000 
Q 884 1300 1366 1694 
Q 2113 2306 2375 2664 
Q 2638 3022 2638 3341 
Q 2638 3675 2398 3904 
Q 2159 4134 1775 4134 
Q 1369 4134 1125 3890 
Q 881 3647 878 3216 
L 300 3275 
Q 359 3922 746 4261 
Q 1134 4600 1788 4600 
Q 2447 4600 2831 4234 
Q 3216 3869 3216 3328 
Q 3216 3053 3103 2787 
Q 2991 2522 2730 2228 
Q 2469 1934 1863 1422 
Q 1356 997 1212 845 
Q 1069 694 975 541 
L 3222 541 
z
" transform="scale(0.015625)"/>
       </defs>
       <use xlink:href="#ArialMT-32"/>
       <use xlink:href="#ArialMT-30" x="55.615234"/>
       <use xlink:href="#ArialMT-30" x="111.230469"/>
       <use xlink:href="#ArialMT-30" x="166.845703"/>
      </g>
     </g>
    </g>
    <g id="ytick_3">
     <g id="line2d_7">
      <g>
       <use xlink:href="#md8fd96ab61" x="32.94375" y="27.913253" style="stroke: #000000; stroke-width: 0.8"/>
      </g>
     </g>
     <g id="text_7">
      <!-- 4000 -->
      <g transform="translate(7.2 31.492159) scale(0.1 -0.1)">
       <use xlink:href="#ArialMT-34"/>
       <use xlink:href="#ArialMT-30" x="55.615234"/>
       <use xlink:href="#ArialMT-30" x="111.230469"/>
       <use xlink:href="#ArialMT-30" x="166.845703"/>
      </g>
     </g>
    </g>
   </g>
   <g id="line2d_8">
    <path d="M 32.86935 95.316095 
L 33.09255 95.055023 
L 33.61335 93.868826 
L 33.98535 93.273242 
L 34.20855 93.263998 
L 34.87815 93.665814 
L 35.25015 94.231222 
L 35.77095 95.041036 
L 36.36615 95.330022 
L 36.81255 95.440555 
L 37.55655 95.350091 
L 37.77975 95.602021 
L 38.44935 96.760015 
L 38.59815 96.658997 
L 38.97015 95.929346 
L 39.49095 95.01388 
L 40.08615 94.210397 
L 40.38375 93.905702 
L 40.60695 93.986793 
L 41.12775 94.775778 
L 41.64855 95.679034 
L 42.24375 96.900311 
L 42.46695 96.934768 
L 42.98775 96.652141 
L 43.21095 96.880918 
L 43.80615 97.646116 
L 43.95495 97.588545 
L 44.55015 96.901695 
L 44.69895 97.189587 
L 44.99655 98.592832 
L 45.51735 101.292858 
L 45.74055 101.563915 
L 45.88935 101.414525 
L 46.18695 100.581105 
L 46.78215 98.915646 
L 47.82375 97.277664 
L 47.97255 97.261262 
L 48.19575 97.557609 
L 49.08855 99.434536 
L 49.38615 99.253298 
L 49.68375 99.103075 
L 49.90695 99.308896 
L 50.27895 100.203599 
L 50.87415 101.560698 
L 51.02295 101.606067 
L 51.17175 101.4599 
L 51.46935 100.690477 
L 52.51095 97.268099 
L 52.88295 96.908396 
L 53.10615 96.982737 
L 53.70135 97.636336 
L 54.22215 98.166766 
L 54.51975 98.339557 
L 54.74295 98.912057 
L 55.04055 100.687221 
L 55.41255 103.285706 
L 55.48695 103.324812 
L 55.63575 102.450923 
L 55.93335 97.764433 
L 56.75175 84.014829 
L 57.49575 75.926404 
L 58.31415 66.9261 
L 58.76055 58.793873 
L 60.09975 30.97339 
L 60.54615 27.079231 
L 60.91815 25.492238 
L 61.29015 24.671434 
L 61.66215 24.350323 
L 61.88535 24.398116 
L 62.18295 24.762357 
L 62.85255 26.233619 
L 63.29895 26.920332 
L 63.74535 27.183718 
L 64.19175 27.504476 
L 64.63815 28.184249 
L 65.38215 29.364698 
L 66.34935 30.116071 
L 67.01895 30.548758 
L 67.68855 30.642877 
L 70.44135 30.680315 
L 71.33415 30.691803 
L 71.92935 31.026096 
L 72.45015 31.237267 
L 75.50055 31.755698 
L 76.09575 31.731653 
L 76.76535 32.035225 
L 77.43495 32.234942 
L 78.62535 32.452345 
L 81.08055 33.103718 
L 83.23815 33.343107 
L 83.68455 33.355282 
L 84.20535 33.700858 
L 87.18135 35.711349 
L 87.70215 35.844001 
L 88.52055 35.734915 
L 89.11575 35.746633 
L 89.85975 35.816613 
L 90.97575 35.669154 
L 91.49655 35.816217 
L 92.53815 36.247352 
L 93.35655 36.218151 
L 94.62135 35.937281 
L 95.58855 36.051387 
L 97.07655 36.062201 
L 97.52295 36.079626 
L 100.05255 35.532811 
L 101.01975 35.61438 
L 101.61495 35.58526 
L 102.21015 35.247269 
L 102.87975 34.933637 
L 103.40055 34.983802 
L 104.07015 35.260984 
L 104.96295 35.795311 
L 105.55815 35.894841 
L 108.45975 35.876233 
L 109.05495 36.004513 
L 109.79895 36.171443 
L 110.31975 36.220769 
L 111.80775 36.066832 
L 112.62615 36.162233 
L 113.29575 36.171127 
L 113.96535 36.295708 
L 115.52775 36.111781 
L 117.09015 36.663137 
L 117.75975 36.491567 
L 118.20615 36.519782 
L 119.32215 36.823 
L 119.91735 36.734751 
L 121.18215 36.289514 
L 122.67015 36.575166 
L 123.33975 36.589478 
L 124.08375 36.552865 
L 124.60455 36.596376 
L 126.31575 37.085928 
L 126.76215 37.017237 
L 127.87815 36.691944 
L 128.32455 36.809604 
L 129.73815 37.48654 
L 130.40775 37.521928 
L 132.56535 37.113301 
L 133.75575 37.321007 
L 134.64855 37.504272 
L 135.46695 37.730728 
L 136.80615 37.733965 
L 138.59175 37.59902 
L 139.48455 37.823434 
L 140.67495 38.19361 
L 141.93975 38.029731 
L 142.53495 38.133374 
L 143.20455 38.266249 
L 144.61815 38.109179 
L 144.61815 38.109179 
" clip-path="url(#p08935c55c0)" style="fill: none; stroke: #9499df; stroke-width: 1.5; stroke-linecap: square"/>
   </g>
   <g id="line2d_9">
    <path d="M 32.86935 92.465159 
L 33.61335 92.395448 
L 34.35735 92.49096 
L 35.62215 91.934685 
L 36.51495 90.691927 
L 36.81255 90.917931 
L 37.63095 91.664355 
L 38.07735 91.611458 
L 38.82135 91.340121 
L 39.56535 90.765755 
L 39.86295 90.932686 
L 40.97895 91.868263 
L 41.27655 91.874739 
L 41.49975 91.714707 
L 41.79735 91.16519 
L 42.31815 90.096092 
L 42.54135 90.066005 
L 42.91335 90.437015 
L 43.35975 90.7788 
L 44.17815 91.05812 
L 44.40135 90.864834 
L 45.14535 89.874167 
L 45.36855 90.084858 
L 45.96375 90.914629 
L 46.26135 90.910237 
L 46.70775 90.829583 
L 47.15415 90.782351 
L 48.04695 90.416144 
L 48.41895 90.731595 
L 50.05575 92.266692 
L 51.17175 92.897115 
L 51.84135 92.581122 
L 52.73415 91.826814 
L 53.32935 91.114385 
L 53.70135 90.715774 
L 53.92455 90.758125 
L 54.22215 91.191907 
L 54.66855 91.813045 
L 54.89175 91.812905 
L 55.33815 91.488033 
L 56.45415 90.530055 
L 56.97495 90.420017 
L 57.79335 89.891468 
L 58.09095 90.171248 
L 58.68615 91.170152 
L 59.20695 92.019323 
L 59.57895 92.161271 
L 59.95095 92.057213 
L 60.32295 91.64614 
L 61.21575 90.49972 
L 62.18295 90.068964 
L 63.00135 89.197364 
L 63.29895 89.365828 
L 63.74535 89.969682 
L 64.56375 91.223376 
L 65.30775 91.636065 
L 65.67975 91.628815 
L 65.97735 91.441022 
L 66.42375 90.799367 
L 66.79575 90.423123 
L 67.01895 90.488305 
L 67.53975 90.807046 
L 67.83735 90.614201 
L 68.28375 90.29423 
L 68.80455 90.273754 
L 69.17655 90.423414 
L 69.47415 90.797919 
L 70.36695 92.59491 
L 71.25975 94.337359 
L 71.40855 94.217814 
L 71.63175 93.604217 
L 72.97095 88.58329 
L 73.26855 88.494505 
L 73.78935 88.539667 
L 74.31015 88.428222 
L 74.68215 88.741942 
L 75.05415 88.953987 
L 75.79815 88.863034 
L 76.09575 88.67875 
L 76.91415 87.894338 
L 77.13735 88.067967 
L 77.58375 88.89904 
L 78.03015 89.549721 
L 78.47655 89.859362 
L 78.77415 89.839539 
L 79.29495 89.48061 
L 79.81575 89.095759 
L 80.26215 89.196999 
L 80.70855 89.405279 
L 81.08055 89.948239 
L 81.52695 90.552824 
L 82.04775 90.720667 
L 82.41975 90.697695 
L 82.64295 90.425942 
L 82.86615 89.75698 
L 83.23815 87.785831 
L 84.20535 80.899914 
L 85.99095 66.973894 
L 86.58615 64.525444 
L 87.40455 61.711651 
L 87.70215 59.625869 
L 88.07415 55.186965 
L 88.59495 45.641724 
L 89.93415 19.175419 
L 90.38055 15.284263 
L 90.75255 13.847442 
L 91.19895 13.128507 
L 92.01735 12.259953 
L 92.31495 12.294054 
L 92.61255 12.609864 
L 94.24935 15.283891 
L 94.69575 17.183164 
L 95.43975 20.102786 
L 95.88615 21.259609 
L 96.33255 21.799146 
L 97.74615 22.982939 
L 99.30855 24.445892 
L 100.57335 25.637323 
L 101.68935 26.204153 
L 102.21015 26.276479 
L 102.73095 26.370007 
L 105.18615 27.690434 
L 105.70695 28.175912 
L 106.45095 28.926214 
L 106.82295 28.97838 
L 107.79015 28.908766 
L 108.38535 29.128221 
L 109.20375 29.710019 
L 110.24535 30.643594 
L 110.84055 30.703373 
L 111.73335 30.840778 
L 113.44455 31.385489 
L 115.00695 31.529859 
L 115.37895 31.653547 
L 117.23895 32.806927 
L 118.05735 32.909951 
L 120.58695 33.079189 
L 121.25655 33.550833 
L 121.85175 33.859452 
L 122.22375 33.855812 
L 122.67015 33.597502 
L 123.19095 33.326119 
L 123.56295 33.408368 
L 124.38135 33.808539 
L 124.75335 33.613396 
L 125.64615 32.964347 
L 126.09255 33.025145 
L 127.20855 33.322521 
L 128.02695 33.429946 
L 129.29175 33.979914 
L 129.81255 33.910699 
L 130.25895 33.595773 
L 130.85415 33.175969 
L 132.56535 32.838015 
L 133.30935 33.037186 
L 134.05335 33.091949 
L 135.09495 33.227605 
L 136.58295 33.003924 
L 137.62455 32.316401 
L 138.59175 32.357838 
L 139.26135 32.184374 
L 139.70775 32.343468 
L 140.30295 32.582692 
L 140.82375 32.478771 
L 141.27015 32.434428 
L 141.93975 32.490807 
L 142.75815 32.219638 
L 143.13015 32.45569 
L 143.72535 32.907307 
L 144.09735 32.926107 
L 144.54375 32.708243 
L 144.61815 32.656298 
L 144.61815 32.656298 
" clip-path="url(#p08935c55c0)" style="fill: none; stroke: #93dfe2; stroke-width: 1.5; stroke-linecap: square"/>
   </g>
   <g id="patch_3">
    <path d="M 32.94375 118.08 
L 32.94375 7.2 
" style="fill: none; stroke: #000000; stroke-width: 0.8; stroke-linejoin: miter; stroke-linecap: square"/>
   </g>
   <g id="patch_4">
    <path d="M 144.54375 118.08 
L 144.54375 7.2 
" style="fill: none; stroke: #000000; stroke-width: 0.8; stroke-linejoin: miter; stroke-linecap: square"/>
   </g>
   <g id="patch_5">
    <path d="M 32.94375 118.08 
L 144.54375 118.08 
" style="fill: none; stroke: #000000; stroke-width: 0.8; stroke-linejoin: miter; stroke-linecap: square"/>
   </g>
   <g id="patch_6">
    <path d="M 32.94375 7.2 
L 144.54375 7.2 
" style="fill: none; stroke: #000000; stroke-width: 0.8; stroke-linejoin: miter; stroke-linecap: square"/>
   </g>
  </g>
 </g>
 <defs>
  <clipPath id="p08935c55c0">
   <rect x="32.94375" y="7.2" width="111.6" height="110.88"/>
  </clipPath>
 </defs>
</svg>
