<?xml version="1.0" encoding="utf-8" standalone="no"?>
<!DOCTYPE svg PUBLIC "-//W3C//DTD SVG 1.1//EN"
  "http://www.w3.org/Graphics/SVG/1.1/DTD/svg11.dtd">
<svg xmlns:xlink="http://www.w3.org/1999/xlink" width="151.74375pt" height="137.925312pt" viewBox="0 0 151.74375 137.925312" xmlns="http://www.w3.org/2000/svg" version="1.1">
 <metadata>
  <rdf:RDF xmlns:dc="http://purl.org/dc/elements/1.1/" xmlns:cc="http://creativecommons.org/ns#" xmlns:rdf="http://www.w3.org/1999/02/22-rdf-syntax-ns#">
   <cc:Work>
    <dc:type rdf:resource="http://purl.org/dc/dcmitype/StillImage"/>
    <dc:date>2025-06-30T14:49:35.321904</dc:date>
    <dc:format>image/svg+xml</dc:format>
    <dc:creator>
     <cc:Agent>
      <dc:title>Matplotlib v3.7.1, https://matplotlib.org/</dc:title>
     </cc:Agent>
    </dc:creator>
   </cc:Work>
  </rdf:RDF>
 </metadata>
 <defs>
  <style type="text/css">*{stroke-linejoin: round; stroke-linecap: butt}</style>
 </defs>
 <g id="figure_1">
  <g id="patch_1">
   <path d="M 0 137.925312 
L 151.74375 137.925312 
L 151.74375 0 
L 0 0 
z
" style="fill: #ffffff"/>
  </g>
  <g id="axes_1">
   <g id="patch_2">
    <path d="M 32.94375 118.08 
L 144.54375 118.08 
L 144.54375 7.2 
L 32.94375 7.2 
z
" style="fill: #ffffff"/>
   </g>
   <g id="matplotlib.axis_1">
    <g id="xtick_1">
     <g id="line2d_1">
      <defs>
       <path id="maff451359c" d="M 0 0 
L 0 -3.5 
" style="stroke: #000000; stroke-width: 0.8"/>
      </defs>
      <g>
       <use xlink:href="#maff451359c" x="32.94375" y="118.08" style="stroke: #000000; stroke-width: 0.8"/>
      </g>
     </g>
     <g id="text_1">
      <!-- 130 -->
      <g transform="translate(24.602344 128.737812) scale(0.1 -0.1)">
       <defs>
        <path id="ArialMT-31" d="M 2384 0 
L 1822 0 
L 1822 3584 
Q 1619 3391 1289 3197 
Q 959 3003 697 2906 
L 697 3450 
Q 1169 3672 1522 3987 
Q 1875 4303 2022 4600 
L 2384 4600 
L 2384 0 
z
" transform="scale(0.015625)"/>
        <path id="ArialMT-33" d="M 269 1209 
L 831 1284 
Q 928 806 1161 595 
Q 1394 384 1728 384 
Q 2125 384 2398 659 
Q 2672 934 2672 1341 
Q 2672 1728 2419 1979 
Q 2166 2231 1775 2231 
Q 1616 2231 1378 2169 
L 1441 2663 
Q 1497 2656 1531 2656 
Q 1891 2656 2178 2843 
Q 2466 3031 2466 3422 
Q 2466 3731 2256 3934 
Q 2047 4138 1716 4138 
Q 1388 4138 1169 3931 
Q 950 3725 888 3313 
L 325 3413 
Q 428 3978 793 4289 
Q 1159 4600 1703 4600 
Q 2078 4600 2393 4439 
Q 2709 4278 2876 4000 
Q 3044 3722 3044 3409 
Q 3044 3113 2884 2869 
Q 2725 2625 2413 2481 
Q 2819 2388 3044 2092 
Q 3269 1797 3269 1353 
Q 3269 753 2831 336 
Q 2394 -81 1725 -81 
Q 1122 -81 723 278 
Q 325 638 269 1209 
z
" transform="scale(0.015625)"/>
        <path id="ArialMT-30" d="M 266 2259 
Q 266 3072 433 3567 
Q 600 4063 929 4331 
Q 1259 4600 1759 4600 
Q 2128 4600 2406 4451 
Q 2684 4303 2865 4023 
Q 3047 3744 3150 3342 
Q 3253 2941 3253 2259 
Q 3253 1453 3087 958 
Q 2922 463 2592 192 
Q 2263 -78 1759 -78 
Q 1097 -78 719 397 
Q 266 969 266 2259 
z
M 844 2259 
Q 844 1131 1108 757 
Q 1372 384 1759 384 
Q 2147 384 2411 759 
Q 2675 1134 2675 2259 
Q 2675 3391 2411 3762 
Q 2147 4134 1753 4134 
Q 1366 4134 1134 3806 
Q 844 3388 844 2259 
z
" transform="scale(0.015625)"/>
       </defs>
       <use xlink:href="#ArialMT-31"/>
       <use xlink:href="#ArialMT-33" x="55.615234"/>
       <use xlink:href="#ArialMT-30" x="111.230469"/>
      </g>
     </g>
    </g>
    <g id="xtick_2">
     <g id="line2d_2">
      <g>
       <use xlink:href="#maff451359c" x="77.58375" y="118.08" style="stroke: #000000; stroke-width: 0.8"/>
      </g>
     </g>
     <g id="text_2">
      <!-- 140 -->
      <g transform="translate(69.242344 128.737812) scale(0.1 -0.1)">
       <defs>
        <path id="ArialMT-34" d="M 2069 0 
L 2069 1097 
L 81 1097 
L 81 1613 
L 2172 4581 
L 2631 4581 
L 2631 1613 
L 3250 1613 
L 3250 1097 
L 2631 1097 
L 2631 0 
L 2069 0 
z
M 2069 1613 
L 2069 3678 
L 634 1613 
L 2069 1613 
z
" transform="scale(0.015625)"/>
       </defs>
       <use xlink:href="#ArialMT-31"/>
       <use xlink:href="#ArialMT-34" x="55.615234"/>
       <use xlink:href="#ArialMT-30" x="111.230469"/>
      </g>
     </g>
    </g>
    <g id="xtick_3">
     <g id="line2d_3">
      <g>
       <use xlink:href="#maff451359c" x="122.22375" y="118.08" style="stroke: #000000; stroke-width: 0.8"/>
      </g>
     </g>
     <g id="text_3">
      <!-- 150 -->
      <g transform="translate(113.882344 128.737812) scale(0.1 -0.1)">
       <defs>
        <path id="ArialMT-35" d="M 266 1200 
L 856 1250 
Q 922 819 1161 601 
Q 1400 384 1738 384 
Q 2144 384 2425 690 
Q 2706 997 2706 1503 
Q 2706 1984 2436 2262 
Q 2166 2541 1728 2541 
Q 1456 2541 1237 2417 
Q 1019 2294 894 2097 
L 366 2166 
L 809 4519 
L 3088 4519 
L 3088 3981 
L 1259 3981 
L 1013 2750 
Q 1425 3038 1878 3038 
Q 2478 3038 2890 2622 
Q 3303 2206 3303 1553 
Q 3303 931 2941 478 
Q 2500 -78 1738 -78 
Q 1113 -78 717 272 
Q 322 622 266 1200 
z
" transform="scale(0.015625)"/>
       </defs>
       <use xlink:href="#ArialMT-31"/>
       <use xlink:href="#ArialMT-35" x="55.615234"/>
       <use xlink:href="#ArialMT-30" x="111.230469"/>
      </g>
     </g>
    </g>
   </g>
   <g id="matplotlib.axis_2">
    <g id="ytick_1">
     <g id="line2d_4">
      <defs>
       <path id="mc1848a3fec" d="M 0 0 
L 3.5 0 
" style="stroke: #000000; stroke-width: 0.8"/>
      </defs>
      <g>
       <use xlink:href="#mc1848a3fec" x="32.94375" y="113.408269" style="stroke: #000000; stroke-width: 0.8"/>
      </g>
     </g>
     <g id="text_4">
      <!-- 0 -->
      <g transform="translate(23.882812 116.987175) scale(0.1 -0.1)">
       <use xlink:href="#ArialMT-30"/>
      </g>
     </g>
    </g>
    <g id="ytick_2">
     <g id="line2d_5">
      <g>
       <use xlink:href="#mc1848a3fec" x="32.94375" y="84.707857" style="stroke: #000000; stroke-width: 0.8"/>
      </g>
     </g>
     <g id="text_5">
      <!-- 1000 -->
      <g transform="translate(7.2 88.286763) scale(0.1 -0.1)">
       <use xlink:href="#ArialMT-31"/>
       <use xlink:href="#ArialMT-30" x="55.615234"/>
       <use xlink:href="#ArialMT-30" x="111.230469"/>
       <use xlink:href="#ArialMT-30" x="166.845703"/>
      </g>
     </g>
    </g>
    <g id="ytick_3">
     <g id="line2d_6">
      <g>
       <use xlink:href="#mc1848a3fec" x="32.94375" y="56.007446" style="stroke: #000000; stroke-width: 0.8"/>
      </g>
     </g>
     <g id="text_6">
      <!-- 2000 -->
      <g transform="translate(7.2 59.586352) scale(0.1 -0.1)">
       <defs>
        <path id="ArialMT-32" d="M 3222 541 
L 3222 0 
L 194 0 
Q 188 203 259 391 
Q 375 700 629 1000 
Q 884 1300 1366 1694 
Q 2113 2306 2375 2664 
Q 2638 3022 2638 3341 
Q 2638 3675 2398 3904 
Q 2159 4134 1775 4134 
Q 1369 4134 1125 3890 
Q 881 3647 878 3216 
L 300 3275 
Q 359 3922 746 4261 
Q 1134 4600 1788 4600 
Q 2447 4600 2831 4234 
Q 3216 3869 3216 3328 
Q 3216 3053 3103 2787 
Q 2991 2522 2730 2228 
Q 2469 1934 1863 1422 
Q 1356 997 1212 845 
Q 1069 694 975 541 
L 3222 541 
z
" transform="scale(0.015625)"/>
       </defs>
       <use xlink:href="#ArialMT-32"/>
       <use xlink:href="#ArialMT-30" x="55.615234"/>
       <use xlink:href="#ArialMT-30" x="111.230469"/>
       <use xlink:href="#ArialMT-30" x="166.845703"/>
      </g>
     </g>
    </g>
    <g id="ytick_4">
     <g id="line2d_7">
      <g>
       <use xlink:href="#mc1848a3fec" x="32.94375" y="27.307034" style="stroke: #000000; stroke-width: 0.8"/>
      </g>
     </g>
     <g id="text_7">
      <!-- 3000 -->
      <g transform="translate(7.2 30.88594) scale(0.1 -0.1)">
       <use xlink:href="#ArialMT-33"/>
       <use xlink:href="#ArialMT-30" x="55.615234"/>
       <use xlink:href="#ArialMT-30" x="111.230469"/>
       <use xlink:href="#ArialMT-30" x="166.845703"/>
      </g>
     </g>
    </g>
   </g>
   <g id="line2d_8">
    <path d="M 32.89911 78.393162 
L 33.07767 78.706913 
L 33.47943 79.635608 
L 33.61335 79.55627 
L 34.41687 78.355853 
L 34.55079 78.398952 
L 34.72935 78.781849 
L 35.04183 79.461832 
L 35.215926 79.38543 
L 35.53287 79.225773 
L 35.71143 79.451709 
L 36.11319 80.004885 
L 36.38103 79.921408 
L 36.64887 79.686283 
L 37.581846 78.336287 
L 37.72023 78.508299 
L 38.83623 80.861264 
L 39.23799 80.890027 
L 39.46119 80.671775 
L 39.68439 80.544424 
L 39.81831 80.818053 
L 40.26471 81.945746 
L 40.39863 81.822547 
L 40.66647 81.064225 
L 41.02359 80.278689 
L 41.55927 79.476665 
L 41.73783 79.730136 
L 42.13959 80.404148 
L 42.36279 80.344444 
L 42.89847 80.096341 
L 43.07703 80.286585 
L 43.34487 81.154164 
L 43.61271 81.745922 
L 43.79127 81.775348 
L 44.01447 81.518434 
L 44.28231 81.308337 
L 44.68407 81.372863 
L 44.86263 81.051715 
L 45.13047 79.920918 
L 45.44295 78.876694 
L 45.53223 78.926929 
L 45.80007 79.609284 
L 46.02327 79.907215 
L 46.20183 79.797623 
L 46.46967 79.312564 
L 46.82679 78.60744 
L 46.96071 78.79991 
L 47.27319 80.068851 
L 47.54103 80.735902 
L 47.71959 80.776093 
L 47.94279 80.541816 
L 48.38919 79.965811 
L 48.56775 80.076478 
L 49.14807 80.810342 
L 49.50519 81.155718 
L 49.86231 81.388509 
L 50.04087 81.155758 
L 50.44263 80.547146 
L 50.62119 80.725877 
L 50.84439 80.930778 
L 50.97831 80.82594 
L 51.42471 80.09722 
L 51.46935 80.139664 
L 51.69255 80.675095 
L 52.04967 81.499351 
L 52.22823 81.480579 
L 52.54071 81.270677 
L 52.76391 81.559434 
L 53.03175 81.763941 
L 53.56743 81.826783 
L 53.92455 81.925499 
L 54.54951 81.745179 
L 54.90663 81.390391 
L 55.26375 81.456872 
L 55.44231 81.128662 
L 55.93335 79.724941 
L 55.97799 79.751408 
L 56.20119 80.201031 
L 56.46903 80.496913 
L 56.69223 80.725234 
L 57.04935 81.170508 
L 57.89751 81.458593 
L 59.01351 82.393169 
L 59.50455 82.754281 
L 59.77239 82.701087 
L 59.99559 82.658801 
L 60.12951 82.9759 
L 60.39735 84.665915 
L 60.79911 86.913817 
L 61.02231 87.259209 
L 61.15623 87.132776 
L 61.42407 86.313125 
L 61.78119 84.481215 
L 62.13831 81.198139 
L 62.40615 79.270696 
L 62.45079 79.285697 
L 62.54007 79.719861 
L 62.89719 83.703921 
L 62.98647 83.462822 
L 63.20967 80.516207 
L 63.47751 78.111783 
L 63.65607 77.925377 
L 63.92391 78.188358 
L 64.41495 78.798778 
L 64.59351 78.668397 
L 64.77207 78.117282 
L 65.03991 76.327729 
L 65.70951 71.197534 
L 65.79879 71.159559 
L 65.84343 71.211952 
L 66.02199 71.79949 
L 66.51303 73.717169 
L 66.64695 73.617482 
L 66.87015 72.933317 
L 67.13799 72.207126 
L 67.27191 72.27586 
L 67.49511 72.975153 
L 68.20935 75.480527 
L 68.74503 76.547052 
L 69.23607 77.377441 
L 69.81639 78.056691 
L 69.99495 77.987314 
L 70.48599 77.405171 
L 70.84311 77.878242 
L 71.24487 78.78618 
L 72.00375 80.501426 
L 72.27159 80.463587 
L 72.40551 80.534946 
L 72.53943 80.941074 
L 72.80727 82.813286 
L 73.11975 84.43829 
L 73.34295 84.659579 
L 73.52151 84.528675 
L 74.10183 83.64915 
L 74.14647 83.685557 
L 74.36967 84.109323 
L 74.81607 84.954103 
L 74.99463 84.898876 
L 75.44103 84.378141 
L 75.48567 84.416156 
L 75.88743 84.790056 
L 76.28919 84.634878 
L 76.69095 84.009818 
L 77.04807 83.359089 
L 77.18199 83.527017 
L 77.44983 84.604593 
L 77.76231 85.513876 
L 77.98551 85.577511 
L 78.38727 85.59443 
L 78.87831 86.336774 
L 79.14615 86.568758 
L 79.32471 86.260969 
L 79.63719 85.710684 
L 79.90503 85.75516 
L 80.17287 85.838027 
L 80.39607 86.362975 
L 80.75319 87.1117 
L 80.97639 87.162279 
L 81.19959 86.970347 
L 81.51207 86.287922 
L 81.86919 85.588557 
L 82.04775 85.664579 
L 82.18167 85.691985 
L 82.31559 85.435853 
L 82.71735 84.322739 
L 82.85127 84.608319 
L 83.61015 87.378004 
L 83.83335 87.40518 
L 84.01191 87.075511 
L 84.27975 86.563981 
L 84.41367 86.672431 
L 84.72615 87.004809 
L 84.99399 86.843984 
L 85.35111 86.706563 
L 85.84215 86.687428 
L 86.15463 86.708696 
L 86.33319 86.753134 
L 86.86887 87.187744 
L 87.49383 86.925521 
L 87.71703 86.738375 
L 88.02951 86.415191 
L 88.74375 86.608929 
L 89.23479 87.187663 
L 89.45799 86.94208 
L 89.85975 86.590007 
L 90.21687 86.279525 
L 90.44007 86.109055 
L 90.57399 86.342614 
L 90.97575 87.255379 
L 91.19895 87.300625 
L 91.42215 87.096648 
L 91.82391 86.612893 
L 92.04711 86.481527 
L 92.27031 85.942542 
L 92.58279 85.329544 
L 92.71671 85.413321 
L 93.11847 85.838266 
L 93.38631 85.724246 
L 93.60951 85.676273 
L 94.10055 85.951828 
L 94.27911 85.980513 
L 94.50231 86.509242 
L 94.81479 87.132007 
L 95.03799 87.152143 
L 95.21655 87.012761 
L 95.43975 86.433355 
L 95.75223 85.703721 
L 95.88615 85.791995 
L 96.19863 86.086707 
L 96.60039 85.701563 
L 96.64503 85.768222 
L 96.86823 86.52325 
L 97.22535 87.550616 
L 97.49319 87.773823 
L 97.71639 87.717072 
L 98.20743 87.483444 
L 98.56455 87.235754 
L 99.10023 86.460495 
L 100.48407 87.588458 
L 100.66263 87.249919 
L 101.06439 86.405432 
L 101.19831 86.644692 
L 101.64471 87.578115 
L 101.77863 87.561265 
L 102.00183 87.122535 
L 102.31431 86.651876 
L 102.53751 86.363879 
L 103.20711 84.986352 
L 103.34103 85.17594 
L 103.56423 86.036368 
L 103.92135 87.397687 
L 104.14455 87.558469 
L 104.59095 87.449477 
L 105.03735 87.321144 
L 105.34983 87.471008 
L 105.57303 87.279347 
L 105.88551 86.929374 
L 106.01943 87.118679 
L 106.42119 87.820619 
L 106.73367 87.810863 
L 107.31399 87.780329 
L 107.67111 87.84614 
L 107.89431 87.660523 
L 108.92103 86.215344 
L 109.09959 86.40868 
L 109.41207 86.755571 
L 109.76919 86.933854 
L 110.17095 87.376068 
L 111.37623 87.206531 
L 111.64407 87.000501 
L 111.95655 86.749922 
L 112.53687 86.750141 
L 112.84935 86.327474 
L 113.02791 86.553222 
L 113.38503 86.995475 
L 113.51895 86.970188 
L 113.69751 86.606999 
L 114.09927 85.49049 
L 114.14391 85.508714 
L 114.27783 85.828634 
L 114.72423 87.321405 
L 114.99207 87.356124 
L 115.17063 87.207978 
L 115.39383 86.598492 
L 115.66167 85.918195 
L 115.79559 86.000663 
L 116.15271 86.900572 
L 116.37591 87.218595 
L 116.55447 87.104534 
L 116.77767 86.563466 
L 117.26871 85.147961 
L 117.40263 85.37782 
L 118.07223 87.38132 
L 118.29543 87.240306 
L 118.69719 86.929574 
L 119.32215 86.934889 
L 119.54535 86.976161 
L 119.76855 87.051534 
L 120.34887 87.592463 
L 120.70599 87.408149 
L 120.92919 87.384168 
L 121.59879 87.59795 
L 122.40231 87.416768 
L 122.75943 87.197126 
L 123.42903 87.624834 
L 124.23255 87.241771 
L 124.67895 86.755144 
L 125.08071 86.821302 
L 125.97351 87.49355 
L 126.15207 87.110386 
L 126.46455 86.432604 
L 126.59847 86.507965 
L 127.22343 87.29149 
L 127.40199 87.161321 
L 127.58055 86.645469 
L 127.98231 85.395256 
L 128.07159 85.485309 
L 128.29479 86.300076 
L 128.65191 87.364151 
L 128.83047 87.440714 
L 128.96439 87.274643 
L 129.18759 86.507335 
L 129.54471 85.311367 
L 129.63399 85.381334 
L 129.90183 86.203404 
L 130.34823 87.398766 
L 130.48215 87.411704 
L 130.66071 87.12578 
L 130.92855 86.723927 
L 131.15175 86.832116 
L 131.77671 87.088014 
L 132.04455 87.100668 
L 132.22311 86.912944 
L 132.66951 86.113448 
L 132.71415 86.145387 
L 132.89271 86.560232 
L 133.20519 87.1591 
L 133.51767 87.238812 
L 133.78551 87.120381 
L 134.32119 86.756313 
L 134.49975 86.694726 
L 134.72295 86.131634 
L 134.94615 85.656286 
L 135.08007 85.779452 
L 135.74967 87.148008 
L 136.46391 86.6321 
L 136.68711 86.032099 
L 137.04423 85.056083 
L 137.13351 85.114782 
L 137.31207 85.685007 
L 137.71383 87.074051 
L 138.02631 87.231453 
L 138.96375 87.176301 
L 139.54407 86.708725 
L 139.85655 86.39572 
L 140.03511 86.474501 
L 140.70471 87.12612 
L 140.97255 86.956447 
L 141.19575 86.433395 
L 141.55287 85.587592 
L 141.68679 85.712656 
L 142.35639 86.989488 
L 142.62423 86.987767 
L 142.89207 86.704743 
L 143.11527 86.554847 
L 143.33847 86.687013 
L 143.74023 86.886478 
L 144.27591 86.934929 
L 144.58839 86.660411 
L 144.58839 86.660411 
" clip-path="url(#p710ef19690)" style="fill: none; stroke: #9499df; stroke-width: 1.5; stroke-linecap: square"/>
   </g>
   <g id="line2d_9">
    <path d="M 32.89911 82.743815 
L 33.117846 83.176792 
L 33.30087 83.052586 
L 33.52407 82.948777 
L 33.79191 83.370015 
L 33.92583 83.454817 
L 33.966006 83.423176 
L 34.14903 83.031221 
L 34.90791 80.78752 
L 35.44359 81.169896 
L 36.02391 82.216726 
L 36.064086 82.180634 
L 36.51495 81.875906 
L 36.78279 82.319486 
L 37.13991 82.821133 
L 37.27383 82.599921 
L 37.94343 80.588169 
L 38.12199 80.748191 
L 38.65767 81.663419 
L 38.97015 82.195191 
L 39.10407 82.094125 
L 39.55047 81.118321 
L 39.77367 80.793267 
L 39.90759 80.954828 
L 40.13079 81.868742 
L 40.48791 83.1233 
L 41.46999 84.298379 
L 41.60391 84.278977 
L 41.78247 83.952971 
L 42.13959 82.625904 
L 42.71991 80.484897 
L 42.98775 80.202976 
L 43.34487 79.969944 
L 43.70199 79.651842 
L 43.88055 79.878039 
L 44.14839 80.288632 
L 44.28231 80.127336 
L 44.59479 79.665552 
L 44.72871 79.939445 
L 45.21975 81.399912 
L 45.35367 81.279264 
L 45.80007 80.32123 
L 45.88935 80.410898 
L 46.42503 81.278932 
L 46.64823 81.331792 
L 46.91607 81.867814 
L 47.09463 82.026616 
L 47.76423 81.84184 
L 48.56775 80.749127 
L 49.05879 80.776944 
L 49.46055 80.639886 
L 49.63911 80.524541 
L 50.08551 80.079393 
L 50.26407 80.258009 
L 50.79975 81.035775 
L 50.93367 80.84469 
L 51.38007 79.922387 
L 51.51399 80.048082 
L 51.82647 80.840058 
L 52.18359 81.566876 
L 52.49607 81.677719 
L 52.85319 81.784948 
L 53.16567 81.907134 
L 53.34423 81.628469 
L 53.70135 81.06518 
L 54.19239 81.069407 
L 54.37095 81.441708 
L 54.77271 82.3252 
L 55.17447 82.324523 
L 55.57623 82.692854 
L 56.11191 82.563417 
L 56.64759 83.686886 
L 56.91543 83.505017 
L 57.31719 83.268254 
L 57.71895 83.187999 
L 58.07607 82.966364 
L 58.52247 83.324813 
L 58.96887 83.607393 
L 59.14743 83.437444 
L 59.32599 82.990056 
L 60.08487 80.446615 
L 60.30807 80.340037 
L 60.48663 80.533337 
L 61.24551 81.925176 
L 61.46871 81.977866 
L 61.73655 81.943173 
L 61.91511 82.31786 
L 62.22759 82.960446 
L 62.36151 82.831268 
L 62.94183 81.955807 
L 63.43287 82.104126 
L 63.96855 81.48882 
L 64.14711 81.76351 
L 64.63815 82.641042 
L 64.77207 82.434027 
L 65.08455 81.261289 
L 65.44167 80.027336 
L 65.53095 80.026947 
L 65.70951 80.452248 
L 66.11127 81.588366 
L 66.24519 81.510731 
L 66.78087 80.712158 
L 67.27191 80.865036 
L 67.62903 80.053589 
L 68.03079 79.293833 
L 68.20935 79.29138 
L 68.38791 79.670655 
L 68.83431 80.897823 
L 68.96823 80.831402 
L 69.50391 79.809484 
L 69.72711 79.021865 
L 69.99495 76.893358 
L 70.61991 71.144191 
L 70.88775 70.391958 
L 71.33415 69.957727 
L 71.46807 70.230829 
L 71.69127 71.611153 
L 72.18231 74.800428 
L 72.22695 74.834683 
L 72.27159 74.75611 
L 72.36087 74.125017 
L 72.49479 71.459129 
L 72.71799 61.491902 
L 73.29831 33.378433 
L 73.61079 28.550341 
L 73.87863 27.391675 
L 74.14647 26.411488 
L 74.59287 24.492015 
L 74.77143 24.438174 
L 75.08391 24.556905 
L 75.26247 24.219361 
L 75.66423 22.628299 
L 76.55703 19.057236 
L 76.95879 17.94484 
L 77.36055 16.945956 
L 77.49447 16.976947 
L 77.62839 17.366428 
L 77.80695 18.77421 
L 78.03015 22.977339 
L 78.29799 33.807345 
L 78.96759 65.164797 
L 79.36935 70.435312 
L 79.77111 73.663757 
L 80.08359 74.679034 
L 80.26215 74.708721 
L 80.44071 74.4146 
L 80.70855 73.519889 
L 81.02103 71.599871 
L 81.51207 68.564966 
L 81.69063 68.32894 
L 81.86919 68.510066 
L 82.31559 69.061457 
L 82.53879 69.07064 
L 82.71735 68.856065 
L 83.38695 67.79344 
L 83.69943 67.11797 
L 83.96727 66.751973 
L 84.10119 66.870648 
L 84.50295 67.749089 
L 84.86007 69.023203 
L 85.26183 70.259239 
L 85.48503 70.308761 
L 86.55639 70.043147 
L 86.82423 69.3093 
L 87.76167 66.316188 
L 87.94023 66.324857 
L 88.16343 66.300827 
L 88.29735 65.991272 
L 88.52055 64.803186 
L 89.01159 62.068598 
L 89.14551 61.973847 
L 89.32407 62.221018 
L 90.17223 64.195447 
L 90.61863 66.402706 
L 90.97575 67.642172 
L 91.10967 67.675049 
L 91.33287 67.382395 
L 91.86855 66.598143 
L 92.40423 66.206882 
L 92.76135 65.810139 
L 92.89527 65.93594 
L 93.11847 66.587142 
L 93.43095 68.440065 
L 93.92199 71.234514 
L 94.36839 72.325775 
L 94.68087 72.730034 
L 94.90407 72.707673 
L 95.21655 72.359175 
L 95.88615 71.544799 
L 96.06471 71.687625 
L 96.42183 72.051472 
L 96.73431 72.223596 
L 97.00215 72.748111 
L 97.44855 73.639179 
L 97.67175 73.531186 
L 98.29671 73.227361 
L 98.74311 73.152552 
L 98.96631 72.385373 
L 99.41271 70.762834 
L 99.59127 70.728477 
L 99.85911 71.168653 
L 100.12695 71.460225 
L 100.35015 71.422945 
L 100.70727 71.35335 
L 101.06439 71.368517 
L 101.51079 71.222672 
L 101.73399 71.149531 
L 101.91255 70.715889 
L 102.53751 68.790817 
L 102.67143 68.780439 
L 102.84999 69.095113 
L 103.38567 70.280329 
L 103.65351 70.373968 
L 104.18919 70.218288 
L 104.41239 70.752673 
L 104.90343 72.001816 
L 105.17127 72.319695 
L 105.30519 72.240596 
L 105.66231 71.51662 
L 106.01943 71.063123 
L 106.24263 71.078551 
L 106.51047 71.372012 
L 106.95687 71.861878 
L 107.93895 72.155863 
L 108.47463 72.652654 
L 109.36743 72.737059 
L 109.72455 72.72364 
L 110.12631 72.897132 
L 110.61735 73.238554 
L 110.79591 72.981772 
L 111.37623 71.801431 
L 111.55479 71.910132 
L 112.17975 72.661332 
L 112.22439 72.627389 
L 112.71543 72.294003 
L 112.98327 72.172168 
L 113.34039 71.517801 
L 113.78679 70.906211 
L 113.92071 70.973435 
L 114.54567 71.656361 
L 116.82231 70.113474 
L 117.17943 69.662042 
L 117.31335 69.724884 
L 117.58119 70.24982 
L 118.60791 72.49649 
L 118.96503 72.586255 
L 119.23287 72.299158 
L 119.72391 71.52828 
L 120.03639 70.964255 
L 120.17031 71.025763 
L 120.61671 71.533493 
L 120.83991 71.148084 
L 121.19703 70.011786 
L 121.73271 68.119527 
L 121.86663 68.179523 
L 122.04519 68.706062 
L 122.31303 70.320294 
L 122.80407 73.48486 
L 123.07191 73.873166 
L 123.42903 73.93322 
L 123.78615 73.681507 
L 124.09863 73.32411 
L 124.90215 71.820132 
L 125.16999 72.011863 
L 126.10743 72.851849 
L 126.41991 73.031522 
L 126.64311 72.940759 
L 126.82167 72.51661 
L 127.49127 70.575042 
L 127.66983 70.558039 
L 128.25015 70.85089 
L 128.78583 70.575278 
L 129.05367 70.025596 
L 129.67863 68.598944 
L 129.85719 68.678838 
L 130.21431 69.220427 
L 130.48215 69.455996 
L 130.66071 69.336269 
L 130.88391 68.731896 
L 131.37495 67.323391 
L 131.55351 67.248369 
L 131.73207 67.415871 
L 132.22311 67.949168 
L 132.53559 68.022914 
L 132.84807 67.806648 
L 133.29447 67.487052 
L 133.47303 67.601564 
L 133.69623 68.098623 
L 134.09799 69.001222 
L 134.27655 68.975676 
L 134.45511 68.727753 
L 134.63367 68.011653 
L 135.08007 65.81148 
L 135.16935 65.888858 
L 135.74967 67.146394 
L 135.79431 67.117971 
L 135.92823 66.825122 
L 136.46391 64.866216 
L 136.50855 64.921714 
L 136.73175 65.599192 
L 136.99959 66.161647 
L 137.13351 66.008508 
L 137.31207 65.281989 
L 138.11559 61.084431 
L 138.29415 61.210013 
L 138.96375 61.874157 
L 139.58871 62.211597 
L 139.85655 62.828204 
L 140.57079 64.796697 
L 140.70471 64.691681 
L 140.92791 64.080211 
L 141.24039 63.399329 
L 141.37431 63.609406 
L 142.17783 65.859372 
L 142.40103 65.756855 
L 143.51703 64.503065 
L 143.91879 63.892485 
L 144.36519 62.816812 
L 144.49911 62.956432 
L 144.58839 63.184535 
L 144.58839 63.184535 
" clip-path="url(#p710ef19690)" style="fill: none; stroke: #93dfe2; stroke-width: 1.5; stroke-linecap: square"/>
   </g>
   <g id="patch_3">
    <path d="M 32.94375 118.08 
L 32.94375 7.2 
" style="fill: none; stroke: #000000; stroke-width: 0.8; stroke-linejoin: miter; stroke-linecap: square"/>
   </g>
   <g id="patch_4">
    <path d="M 144.54375 118.08 
L 144.54375 7.2 
" style="fill: none; stroke: #000000; stroke-width: 0.8; stroke-linejoin: miter; stroke-linecap: square"/>
   </g>
   <g id="patch_5">
    <path d="M 32.94375 118.08 
L 144.54375 118.08 
" style="fill: none; stroke: #000000; stroke-width: 0.8; stroke-linejoin: miter; stroke-linecap: square"/>
   </g>
   <g id="patch_6">
    <path d="M 32.94375 7.2 
L 144.54375 7.2 
" style="fill: none; stroke: #000000; stroke-width: 0.8; stroke-linejoin: miter; stroke-linecap: square"/>
   </g>
  </g>
 </g>
 <defs>
  <clipPath id="p710ef19690">
   <rect x="32.94375" y="7.2" width="111.6" height="110.88"/>
  </clipPath>
 </defs>
</svg>
